<mxfile host="app.diagrams.net" modified="2022-06-28T15:48:59.223Z" agent="5.0 (Macintosh; Intel Mac OS X 10_15_7) AppleWebKit/537.36 (KHTML, like Gecko) Chrome/102.0.0.0 Safari/537.36" etag="ThwGASsk9TK8krokm6Ur" version="18.1.3" type="github">
  <diagram id="NdM1k7HMA_us2tlnT0At" name="Page-1">
    <mxGraphModel dx="894" dy="543" grid="1" gridSize="10" guides="1" tooltips="1" connect="1" arrows="1" fold="1" page="1" pageScale="1" pageWidth="850" pageHeight="1100" math="0" shadow="0">
      <root>
        <mxCell id="0" />
        <mxCell id="1" parent="0" />
        <mxCell id="MLDrHnhKgjnesNrSPSTM-16" value="" style="edgeStyle=orthogonalEdgeStyle;curved=1;orthogonalLoop=1;jettySize=auto;html=1;exitX=1.017;exitY=0.644;exitDx=0;exitDy=0;exitPerimeter=0;" parent="1" source="MLDrHnhKgjnesNrSPSTM-1" target="MLDrHnhKgjnesNrSPSTM-5" edge="1">
          <mxGeometry relative="1" as="geometry">
            <mxPoint x="110" y="80" as="targetPoint" />
            <Array as="points">
              <mxPoint x="170" y="282" />
              <mxPoint x="170" y="280" />
              <mxPoint x="330" y="280" />
              <mxPoint x="330" y="330" />
            </Array>
          </mxGeometry>
        </mxCell>
        <mxCell id="k7k4BYEdU6mmTmryjDpG-4" value="" style="edgeStyle=orthogonalEdgeStyle;rounded=1;orthogonalLoop=1;jettySize=auto;html=1;entryX=0;entryY=0.5;entryDx=0;entryDy=0;" edge="1" parent="1" source="MLDrHnhKgjnesNrSPSTM-1" target="MLDrHnhKgjnesNrSPSTM-30">
          <mxGeometry relative="1" as="geometry">
            <mxPoint x="180" y="420" as="targetPoint" />
          </mxGeometry>
        </mxCell>
        <mxCell id="MLDrHnhKgjnesNrSPSTM-1" value="Perception" style="ellipse;whiteSpace=wrap;html=1;fillColor=#e1d5e7;strokeColor=#9673a6;" parent="1" vertex="1">
          <mxGeometry x="120" y="250" width="120" height="80" as="geometry" />
        </mxCell>
        <mxCell id="MLDrHnhKgjnesNrSPSTM-22" value="" style="edgeStyle=orthogonalEdgeStyle;curved=1;orthogonalLoop=1;jettySize=auto;html=1;exitX=0.5;exitY=1;exitDx=0;exitDy=0;" parent="1" source="MLDrHnhKgjnesNrSPSTM-2" edge="1">
          <mxGeometry relative="1" as="geometry">
            <mxPoint x="530" y="520" as="targetPoint" />
            <Array as="points">
              <mxPoint x="370" y="410" />
              <mxPoint x="370" y="454" />
            </Array>
          </mxGeometry>
        </mxCell>
        <mxCell id="MLDrHnhKgjnesNrSPSTM-2" value="Intention&lt;br&gt;Action" style="ellipse;whiteSpace=wrap;html=1;fillColor=#fff2cc;strokeColor=#d6b656;" parent="1" vertex="1">
          <mxGeometry x="425" y="360" width="120" height="80" as="geometry" />
        </mxCell>
        <mxCell id="MLDrHnhKgjnesNrSPSTM-35" value="" style="edgeStyle=orthogonalEdgeStyle;curved=1;orthogonalLoop=1;jettySize=auto;html=1;startArrow=none;startFill=0;endArrow=classic;endFill=1;entryX=0.65;entryY=0.98;entryDx=0;entryDy=0;entryPerimeter=0;" parent="1" source="MLDrHnhKgjnesNrSPSTM-5" target="MLDrHnhKgjnesNrSPSTM-33" edge="1">
          <mxGeometry relative="1" as="geometry">
            <mxPoint x="650" y="180" as="targetPoint" />
            <Array as="points">
              <mxPoint x="760" y="340" />
              <mxPoint x="760" y="265" />
              <mxPoint x="742" y="265" />
              <mxPoint x="742" y="239" />
            </Array>
          </mxGeometry>
        </mxCell>
        <mxCell id="MLDrHnhKgjnesNrSPSTM-5" value="&lt;br&gt;Context&lt;br&gt;Attention" style="ellipse;whiteSpace=wrap;html=1;fillColor=#d5e8d4;strokeColor=#82b366;" parent="1" vertex="1">
          <mxGeometry x="580" y="300" width="120" height="100" as="geometry" />
        </mxCell>
        <mxCell id="MLDrHnhKgjnesNrSPSTM-26" value="" style="edgeStyle=orthogonalEdgeStyle;curved=1;orthogonalLoop=1;jettySize=auto;html=1;startArrow=none;startFill=0;endArrow=classic;endFill=1;entryX=0;entryY=1;entryDx=0;entryDy=0;" parent="1" target="MLDrHnhKgjnesNrSPSTM-1" edge="1">
          <mxGeometry relative="1" as="geometry">
            <mxPoint x="160" y="460" as="targetPoint" />
            <Array as="points">
              <mxPoint x="68" y="500" />
            </Array>
            <mxPoint x="450" y="540" as="sourcePoint" />
          </mxGeometry>
        </mxCell>
        <mxCell id="MLDrHnhKgjnesNrSPSTM-6" value="" style="shape=image;html=1;verticalAlign=top;verticalLabelPosition=bottom;labelBackgroundColor=#ffffff;imageAspect=0;aspect=fixed;image=https://cdn2.iconfinder.com/data/icons/whcompare-isometric-web-hosting-servers/50/connected-globe-128.png" parent="1" vertex="1">
          <mxGeometry x="440" y="530" width="128" height="128" as="geometry" />
        </mxCell>
        <mxCell id="MLDrHnhKgjnesNrSPSTM-29" value="" style="edgeStyle=orthogonalEdgeStyle;curved=1;orthogonalLoop=1;jettySize=auto;html=1;startArrow=none;startFill=0;endArrow=classic;endFill=1;entryX=0.5;entryY=0;entryDx=0;entryDy=0;exitX=0.042;exitY=0.735;exitDx=0;exitDy=0;exitPerimeter=0;" parent="1" source="MLDrHnhKgjnesNrSPSTM-10" target="MLDrHnhKgjnesNrSPSTM-27" edge="1">
          <mxGeometry relative="1" as="geometry">
            <Array as="points">
              <mxPoint x="585" y="100" />
              <mxPoint x="500" y="100" />
              <mxPoint x="500" y="180" />
              <mxPoint x="545" y="180" />
            </Array>
          </mxGeometry>
        </mxCell>
        <mxCell id="MLDrHnhKgjnesNrSPSTM-40" value="" style="edgeStyle=orthogonalEdgeStyle;curved=1;orthogonalLoop=1;jettySize=auto;html=1;startArrow=none;startFill=0;endArrow=classic;endFill=1;" parent="1" source="MLDrHnhKgjnesNrSPSTM-10" target="MLDrHnhKgjnesNrSPSTM-41" edge="1">
          <mxGeometry relative="1" as="geometry">
            <mxPoint x="310" y="360" as="targetPoint" />
          </mxGeometry>
        </mxCell>
        <mxCell id="MLDrHnhKgjnesNrSPSTM-46" value="" style="edgeStyle=orthogonalEdgeStyle;curved=1;orthogonalLoop=1;jettySize=auto;html=1;startArrow=none;startFill=0;endArrow=classic;endFill=1;entryX=1;entryY=0;entryDx=0;entryDy=0;exitX=0;exitY=0;exitDx=0;exitDy=0;" parent="1" source="MLDrHnhKgjnesNrSPSTM-10" target="MLDrHnhKgjnesNrSPSTM-44" edge="1">
          <mxGeometry relative="1" as="geometry">
            <mxPoint x="390" y="70" as="targetPoint" />
          </mxGeometry>
        </mxCell>
        <mxCell id="MLDrHnhKgjnesNrSPSTM-10" value="Self Model" style="ellipse;whiteSpace=wrap;html=1;fillColor=#f8cecc;strokeColor=#b85450;" parent="1" vertex="1">
          <mxGeometry x="580" width="120" height="100" as="geometry" />
        </mxCell>
        <mxCell id="MLDrHnhKgjnesNrSPSTM-28" value="" style="edgeStyle=orthogonalEdgeStyle;curved=1;orthogonalLoop=1;jettySize=auto;html=1;startArrow=none;startFill=0;endArrow=classic;endFill=1;exitX=0.5;exitY=1;exitDx=0;exitDy=0;" parent="1" source="MLDrHnhKgjnesNrSPSTM-27" target="MLDrHnhKgjnesNrSPSTM-5" edge="1">
          <mxGeometry relative="1" as="geometry" />
        </mxCell>
        <mxCell id="MLDrHnhKgjnesNrSPSTM-27" value="Hypothesizer" style="ellipse;whiteSpace=wrap;html=1;fillColor=#dae8fc;strokeColor=#6c8ebf;" parent="1" vertex="1">
          <mxGeometry x="500" y="200" width="90" height="50" as="geometry" />
        </mxCell>
        <mxCell id="k7k4BYEdU6mmTmryjDpG-2" value="" style="edgeStyle=orthogonalEdgeStyle;rounded=1;orthogonalLoop=1;jettySize=auto;html=1;entryX=0.017;entryY=0.363;entryDx=0;entryDy=0;entryPerimeter=0;" edge="1" parent="1" source="MLDrHnhKgjnesNrSPSTM-30" target="MLDrHnhKgjnesNrSPSTM-2">
          <mxGeometry relative="1" as="geometry">
            <mxPoint x="340" y="385" as="targetPoint" />
          </mxGeometry>
        </mxCell>
        <mxCell id="MLDrHnhKgjnesNrSPSTM-30" value="Affordance" style="ellipse;whiteSpace=wrap;html=1;fillColor=#dae8fc;strokeColor=#6c8ebf;" parent="1" vertex="1">
          <mxGeometry x="220" y="360" width="100" height="50" as="geometry" />
        </mxCell>
        <mxCell id="k7k4BYEdU6mmTmryjDpG-6" value="" style="edgeStyle=orthogonalEdgeStyle;rounded=1;orthogonalLoop=1;jettySize=auto;html=1;" edge="1" parent="1" source="MLDrHnhKgjnesNrSPSTM-33" target="MLDrHnhKgjnesNrSPSTM-10">
          <mxGeometry relative="1" as="geometry" />
        </mxCell>
        <mxCell id="MLDrHnhKgjnesNrSPSTM-33" value="Explainer" style="ellipse;whiteSpace=wrap;html=1;fillColor=#dae8fc;strokeColor=#6c8ebf;" parent="1" vertex="1">
          <mxGeometry x="680" y="170" width="100" height="50" as="geometry" />
        </mxCell>
        <mxCell id="MLDrHnhKgjnesNrSPSTM-43" value="" style="edgeStyle=orthogonalEdgeStyle;curved=1;orthogonalLoop=1;jettySize=auto;html=1;startArrow=none;startFill=0;endArrow=classic;endFill=1;entryX=0.383;entryY=-0.044;entryDx=0;entryDy=0;entryPerimeter=0;" parent="1" source="MLDrHnhKgjnesNrSPSTM-41" target="MLDrHnhKgjnesNrSPSTM-2" edge="1">
          <mxGeometry relative="1" as="geometry">
            <mxPoint x="330" y="220" as="targetPoint" />
          </mxGeometry>
        </mxCell>
        <mxCell id="MLDrHnhKgjnesNrSPSTM-41" value="Goals" style="ellipse;whiteSpace=wrap;html=1;fillColor=#dae8fc;strokeColor=#6c8ebf;" parent="1" vertex="1">
          <mxGeometry x="290" y="150" width="100" height="50" as="geometry" />
        </mxCell>
        <mxCell id="MLDrHnhKgjnesNrSPSTM-47" value="" style="edgeStyle=orthogonalEdgeStyle;curved=1;orthogonalLoop=1;jettySize=auto;html=1;startArrow=none;startFill=0;endArrow=classic;endFill=1;entryX=0.5;entryY=0;entryDx=0;entryDy=0;exitX=0;exitY=0.5;exitDx=0;exitDy=0;" parent="1" source="MLDrHnhKgjnesNrSPSTM-44" target="MLDrHnhKgjnesNrSPSTM-1" edge="1">
          <mxGeometry relative="1" as="geometry">
            <Array as="points">
              <mxPoint x="150" y="90" />
              <mxPoint x="150" y="130" />
              <mxPoint x="140" y="130" />
              <mxPoint x="140" y="250" />
            </Array>
            <mxPoint x="180" y="240" as="targetPoint" />
          </mxGeometry>
        </mxCell>
        <mxCell id="MLDrHnhKgjnesNrSPSTM-44" value="Reference&lt;br&gt;Frame" style="ellipse;whiteSpace=wrap;html=1;fillColor=#dae8fc;strokeColor=#6c8ebf;" parent="1" vertex="1">
          <mxGeometry x="170" y="60" width="110" height="60" as="geometry" />
        </mxCell>
      </root>
    </mxGraphModel>
  </diagram>
</mxfile>
